<svg width="141" height="34" viewBox="0 0 141 34" fill="none" xmlns="http://www.w3.org/2000/svg">
<g clip-path="url(#clip0_117_31)">
<path d="M11.1757 8.58086C9.52387 8.58086 9.1568 9.31332 9.1568 10.7782V13.3419H13.3781L13.011 17.5535H9.1568V30.1884H4.01788V17.5535H0.530762V13.3419H4.01788V10.7782C4.01788 6.5666 5.66968 4.36922 10.4415 4.36922H13.3781V8.21463L11.1757 8.58086ZM13.7451 21.2158C13.7451 16.4548 15.9475 12.9756 20.7194 12.9756C23.2888 12.9756 24.7571 14.2574 25.4912 15.9055V13.3419H30.4466V30.1884H25.4912V27.6248C24.7571 29.2729 23.1053 30.5547 20.7194 30.5547C15.9475 30.5547 13.7451 27.0755 13.7451 22.3145V21.2158ZM18.884 22.3145C18.884 24.8781 19.8017 26.5261 22.1876 26.5261C24.5735 26.5261 25.3077 25.0612 25.3077 22.6807V21.0327C25.3077 18.6522 24.2065 17.1873 22.1876 17.1873C20.1688 17.1873 18.884 18.8353 18.884 21.3989V22.3145ZM41.0915 12.9756C43.1104 12.9756 44.9457 13.3419 46.0469 14.0743L44.9457 17.7366C43.8525 17.2364 42.6611 16.9862 41.4586 17.0042C38.7056 17.0042 37.4208 18.6522 37.4208 21.3989V22.3145C37.4208 25.0612 38.7056 26.7092 41.4586 26.7092C42.6611 26.7272 43.8525 26.477 44.9457 25.9768L46.0469 29.6391C44.9457 30.3715 43.1104 30.7378 41.0915 30.7378C35.0349 30.7378 32.2819 27.4417 32.2819 22.3145V21.582C32.2819 16.2717 35.0349 12.9756 41.0915 12.9756ZM46.5975 22.4976V21.0327C46.5975 16.2717 49.3505 13.1587 54.8564 13.1587C60.3624 13.1587 62.3813 16.2717 62.3813 21.0327V23.7794H51.7364C51.9199 26.1599 52.8376 27.0755 55.7741 27.0755C58.7106 27.0755 59.6283 26.7092 61.2801 25.9768L62.1978 29.456C60.913 30.1884 58.16 30.7378 55.5906 30.7378C48.9834 30.5547 46.5975 27.4417 46.5975 22.4976ZM51.7364 20.3002H57.9765V19.934C57.9765 18.1028 57.2424 16.6379 55.04 16.6379C52.8376 16.6379 51.7364 17.9197 51.7364 20.3002ZM81.2852 22.3145C81.2852 27.0755 79.0828 30.5547 74.3109 30.5547C71.7415 30.5547 69.9061 29.2729 69.3555 27.6248V30.1884H64.5837V4.91856L69.7226 4.36922V15.5392C70.4567 14.0743 72.1085 12.7925 74.4945 12.7925C79.2663 12.7925 81.4687 16.2717 81.4687 21.0327L81.2852 22.3145ZM76.1462 21.2158C76.1462 18.8353 75.2286 17.0042 72.8427 17.0042C70.4567 17.0042 69.5391 18.4691 69.5391 20.8496V22.6807C69.5391 25.0612 70.6403 26.5261 72.8427 26.5261C75.0451 26.5261 76.1462 24.695 76.1462 22.3145V21.2158ZM83.1205 22.1314V21.2158C83.1205 16.4548 85.8735 12.7925 91.563 12.7925C97.2525 12.7925 100.006 16.2717 100.006 21.2158V22.1314C100.006 26.8924 97.2525 30.5547 91.563 30.5547C85.8735 30.5547 83.1205 27.0755 83.1205 22.1314ZM94.8666 20.8496C94.8666 18.6522 93.9489 16.821 91.563 16.821C89.1771 16.821 88.2594 18.6522 88.2594 20.8496V22.4976C88.2594 24.695 89.1771 26.5261 91.563 26.5261C93.9489 26.5261 94.8666 24.695 94.8666 22.4976V20.8496ZM101.474 22.1314V21.2158C101.474 16.4548 104.227 12.7925 109.916 12.7925C115.606 12.7925 118.359 16.2717 118.359 21.2158V22.1314C118.359 26.8924 115.606 30.5547 109.916 30.5547C104.227 30.5547 101.474 27.0755 101.474 22.1314ZM113.22 20.8496C113.22 18.6522 112.302 16.821 109.916 16.821C107.53 16.821 106.613 18.6522 106.613 20.8496V22.4976C106.613 24.695 107.53 26.5261 109.916 26.5261C112.302 26.5261 113.22 24.695 113.22 22.4976V20.8496ZM125.333 21.3989L130.288 13.3419H135.794L130.472 21.582L135.978 30.1884H130.655L125.333 21.9483V30.1884H120.194V4.91856L125.333 4.36922V21.3989Z" fill="#ef3b50"/>
</g>
<defs>
<clipPath id="clip0_117_31">
<rect width="140" height="32.439" fill="white" transform="translate(0.5 0.780487)"/>
</clipPath>
</defs>
</svg>
