<svg width="151" height="40" viewBox="0 0 151 40" fill="none" xmlns="http://www.w3.org/2000/svg">
<g clip-path="url(#clip0_7_138)">
<path d="M8.68896 0C7.38195 0 5.68754 1.37377 4.68797 2.28825C2.49041 4.22171 0.5 7.77695 0.5 10.6306C0.5 14.6854 3.9791 16.216 4.85907 16.216C5.1492 16.216 5.39655 16.0676 5.39655 15.6774C5.39655 15.3715 5.20084 15.117 5.00614 14.8555C4.20042 13.6346 3.94162 12.4694 3.94162 10.8979C3.94162 7.62125 5.46622 4.6179 6.73088 3.24356C6.96407 2.99484 7.49097 2.45756 7.64862 2.45756C7.80513 2.45756 7.8439 2.5839 7.8439 2.97442L7.69697 24.4206C7.69697 27.7732 6.72101 29.105 6.72101 29.8944C6.72101 30.2412 6.87251 30.3313 7.16178 30.3313C8.53145 30.3313 9.8964 28.6766 10.2831 28.0731C11.4822 26.0201 11.7764 24.4175 11.7764 19.7947V1.77351C11.7764 1.28571 11.6383 1.07485 11.1708 0.774093C10.4871 0.343726 9.70369 0 8.68896 0ZM47.8509 0.0598401C47.2067 0.0598401 46.9313 0.39364 46.9009 1.42652L46.7579 5.70325L42.9844 5.57364C42.7555 5.56783 42.6521 5.63958 42.5519 5.83895C42.2315 6.43451 42.0628 6.90118 42.0628 7.67825C42.0628 8.31097 42.3522 8.37847 42.6103 8.37847L46.5365 8.49021L46.5245 16.6609C46.5245 18.3939 45.4212 20.642 43.4635 22.5118C43.4635 22.5118 43.6319 21.9473 43.6223 21.355C43.6223 19.6785 42.5338 18.1592 41.0826 17.0841L37.5405 14.4429C38.283 13.5915 39.5409 11.9029 39.5409 10.4771C39.5409 9.37164 38.8397 8.90724 37.5324 8.90724C35.6873 8.90724 33.5475 10.5822 33.5475 13.0664C33.5475 13.972 33.954 14.787 34.5719 15.4104C33.7188 17.0147 32.5118 19.1256 31.6155 20.6288C30.9385 21.7798 29.7933 23.5433 29.1158 23.5433C28.6162 23.5433 28.3853 22.7642 28.3853 19.7711C28.3853 17.2843 28.5636 14.5806 28.653 11.9853C28.653 11.3905 28.5546 10.8417 27.7755 10.3037C27.0587 9.84852 26.1736 9.21283 25.2619 9.21283C23.235 9.21283 21.8542 11.0615 20.9069 12.8692C19.9267 14.7426 19.3967 16.3215 18.6489 18.6121L18.7314 10.7287C18.7569 10.1666 18.6137 9.94835 18.1599 9.75706C17.5712 9.50962 16.7047 9.22431 15.936 9.22431C15.2937 9.22431 15.2155 9.49884 15.2155 10.1679L15.1291 19.6273L15.1193 23.2757C15.1193 26.565 15.5349 27.1135 17.5041 27.1135C18.5944 27.1135 18.9436 26.9866 18.9652 26.0883C18.9951 25.4942 19.2818 24.0547 19.6696 22.6112C20.8039 18.3504 22.148 14.9803 24.4655 12.4117C24.7071 12.1624 24.8939 12.2516 24.8559 12.6051C24.8559 12.6051 24.4895 18.3715 24.4895 20.7301C24.4895 24.9248 25.1407 27.1137 27.2464 27.1137C29.3131 27.1137 31.3428 24.4817 32.4508 22.7049L36.0052 16.8122C38.3083 18.7575 39.9155 20.2657 39.9155 22.1004C39.9155 23.2408 39.1896 24.3565 38.0839 24.3565C36.702 24.3565 35.8192 22.9121 34.8859 22.9121C34.1112 22.9121 33.1169 24.3945 33.1169 25.2362C33.1169 26.0309 34.8664 27.1551 38.0055 27.1551C42.6394 27.1551 45.1252 24.003 46.617 20.5124C46.9026 24.6553 48.568 27.0752 51.1654 27.0752C52.8691 27.0752 54.8382 24.9417 55.7339 22.3355C55.7339 22.3355 55.8223 23.0121 56.5026 24.3982C57.4389 26.2083 58.8623 27.0394 60.6304 27.0394C62.8296 27.0394 64.7105 25.7179 65.8589 23.5006C66.033 25.1808 67.4563 27.0311 69.7451 27.0311C71.1819 27.0311 72.4918 25.94 73.3516 24.1427C73.3516 24.1427 74.4653 27.1111 77.6866 27.1111C79.4959 27.1111 81.6384 25.4498 82.1504 24.2426L82.2068 25.9981L77.4272 30.3669C76.0394 31.7022 74.5632 33.6208 74.5632 35.745C74.5632 38.4466 77.1365 40 79.4012 40C81.7553 40 83.3172 38.5217 84.1729 37.2831C85.2497 35.6803 85.7045 32.6595 85.7045 29.7066L85.5977 25.2664C88.8191 21.7567 91.3402 16.9055 92.4625 13.4731L94.9077 13.4093C95.3814 13.3777 95.3578 13.5626 95.2923 13.8363C94.8625 15.6363 94.4873 17.6748 94.4873 19.705C94.4873 23.059 95.2667 24.5186 96.387 25.7114C97.3611 26.7108 98.3298 27.0479 99.3493 27.0479C101.343 27.0479 102.595 25.4157 102.992 24.3868C103.928 26.1969 105.308 27.0399 107.076 27.0399C109.275 27.0399 111.156 25.7185 112.304 23.5011C112.478 25.1813 113.901 27.0317 116.19 27.0317C117.9 27.0317 118.892 26.0537 119.672 24.211C119.688 24.8037 119.711 25.4356 119.729 26.028C119.749 26.3346 119.996 26.5286 120.218 26.6086C120.945 26.8813 121.583 27.0177 122.156 27.0177C123.65 27.0177 123.975 26.7134 123.975 25.7449C123.975 24.1475 124.022 21.6236 124.48 19.5971C124.966 17.5795 125.7 15.2955 126.712 13.7064C126.803 13.5422 127.027 13.5853 127.036 13.7842C127.182 17.1845 127.411 22.9405 128.312 24.4305C128.757 25.1412 129.445 25.6592 130.474 25.6592C130.956 25.6592 131.548 25.4553 131.699 25.3281C131.853 25.2096 131.93 25.0778 131.921 24.8335C131.921 20.4867 133.288 16.2785 134.658 13.4491C134.695 13.3652 134.802 13.3587 134.798 13.4691L134.722 16.6011C134.722 21.7451 135.096 24.9949 137.688 26.5572C138.198 26.8399 138.773 26.9876 139.357 26.9859C140.683 26.9859 141.886 26.2517 142.48 25.0709C142.965 24.1533 143.418 22.3872 143.418 21.3867C143.418 20.9995 143.423 20.3692 142.782 20.3692C142.431 20.3692 142.22 20.6258 142.136 21.0135C141.932 21.8538 141.764 22.5745 141.448 23.4053C141.145 24.1984 140.693 24.6602 140.158 24.6602C139.528 24.6602 139.209 24.1695 139.026 23.8661C138.224 22.6523 138.159 19.8639 138.159 17.5366L138.353 11.5462C138.353 11.0506 138.144 10.4574 137.372 10.0201C136.854 9.72459 135.545 9.1683 134.742 9.1683C133.998 9.1683 133.638 9.58605 133.369 10.1993C132.866 11.3008 131.182 15.6214 130.731 19.1341C130.715 19.2267 130.598 19.2463 130.59 19.1281C130.356 16.6441 130.235 13.6511 130.238 11.6318C130.238 11.0214 130.087 10.1487 128.781 9.58321C128.146 9.32215 127.621 9.16234 126.979 9.16234C126.184 9.16234 126.013 9.54833 125.728 10.0598C124.826 11.7107 124.203 13.8635 123.268 16.579L123.283 10.3652C123.283 10.0747 123.103 9.69382 122.588 9.59129C121.312 9.3006 120.721 9.16858 120.218 9.16858C119.851 9.16858 119.65 9.458 119.65 9.77096L119.581 20.3655C119.334 21.6624 118.334 24.7581 116.915 24.7581C115.75 24.7581 115.206 23.5882 115.206 18.6981L115.418 10.7505C115.418 10.2485 115.085 10.0377 114.601 9.82512C113.908 9.5523 113.356 9.44396 112.652 9.44396C111.768 9.44396 111.465 9.86327 111.644 10.8705C110.672 9.56761 109.701 8.84755 107.985 8.84755C104.54 8.84755 101.944 12.9548 101.944 18.9235C101.91 20.5972 102.318 22.2607 102.318 22.2607C102.006 23.6498 101.274 24.782 100.261 24.782C98.9841 24.782 98.1702 22.9924 98.1702 19.8907C98.1702 16.7799 99.3657 13.2713 99.3657 12.3204C99.3657 11.2148 98.6348 10.5153 97.3411 10.5153C96.693 10.5153 94.2888 11.0558 93.0564 11.2332C93.0564 11.2332 93.1954 10.6514 93.1851 10.1939C93.1851 9.10378 92.6691 8.42058 91.388 8.42058C89.8225 8.42058 88.673 9.52862 88.673 11.419C88.673 12.2671 89.1658 13.0518 89.8182 13.4734C88.9714 16.9742 87.5946 19.5776 85.5657 22.4861L85.7367 10.7087C85.7367 10.3258 85.6338 10.088 84.8771 9.79691C84.4771 9.62561 83.8252 9.4278 83.0035 9.4278C81.8125 9.4278 81.8913 10.2708 81.955 10.902C81.4101 9.94424 80.2171 8.80742 78.3766 8.80742C73.3612 8.80742 71.8214 16.3881 72.5765 21.7717C72.5765 22.4281 71.9298 24.7581 70.4693 24.7581C69.3044 24.7581 68.7607 23.5882 68.7607 18.6981L68.9742 10.7505C68.9742 10.2484 68.6394 10.0375 68.1549 9.82512C67.462 9.5523 66.9128 9.44396 66.2087 9.44396C65.3247 9.44396 65.0214 9.86327 65.2002 10.8703C64.2287 9.56747 63.2555 8.8474 61.5394 8.8474C58.0945 8.8474 55.4635 12.6037 55.4635 18.5721C55.4635 20.8505 53.4844 24.3271 52.0966 24.3271C51.3256 24.3271 50.5047 22.9243 50.5047 19.3401C50.5086 16.897 50.8448 8.58011 50.8448 8.58011L55.689 8.50226C55.9201 8.50013 56.0541 8.24971 56.1397 8.09543C56.3622 7.64805 56.4698 7.35013 56.4698 6.81483C56.4698 6.33185 56.3722 6.15545 55.7473 6.12057L50.9192 5.83328L51.1246 1.37505C51.139 1.09357 50.9677 0.91008 50.6576 0.772675C49.723 0.410373 48.5768 0.0599819 47.8509 0.0598401ZM62.5121 11.7414C63.8037 11.7414 65.1143 12.909 65.1143 17.0515C65.1143 22.2672 63.1972 24.6938 61.7231 24.6938C60.3412 24.6938 59.2921 22.7604 59.2921 18.9627C59.2921 15.124 60.3166 11.7414 62.5121 11.7414ZM109.026 11.7414C110.317 11.7414 111.628 12.909 111.628 17.0515C111.628 22.2672 109.711 24.6938 108.237 24.6938C106.855 24.6938 105.806 22.7604 105.806 18.9627C105.806 15.124 106.83 11.7414 109.026 11.7414ZM79.5241 11.7654C81.2096 11.7654 81.9553 13.4874 81.9553 16.826C81.9553 21.8595 80.4457 24.7255 78.6124 24.7255C77.442 24.7255 76.0962 22.8206 76.1672 19.0741C76.1672 16.6787 76.9551 11.7654 79.5241 11.7654ZM82.3777 28.6037V30.5864C82.3777 37.1654 80.6091 38.2883 79.1879 38.2883C78.6494 38.2883 77.3304 37.8852 77.3304 36.2576C77.3304 33.9824 79.7302 31.3941 80.476 30.5943L82.3777 28.6037Z" fill="#ef3b50"/>
</g>
<defs>
<clipPath id="clip0_7_138">
<rect width="150" height="40" fill="white" transform="translate(0.5)"/>
</clipPath>
</defs>
</svg>
