<svg width="129" height="34" viewBox="0 0 129 34" fill="none" xmlns="http://www.w3.org/2000/svg">
<path d="M1.3501 5.72997H6.2901V23.71H15.4301V28.27H1.3501V5.72997ZM17.6101 13H22.3501V28.26H17.6101V13ZM19.9801 5.40997C20.524 5.40997 21.0557 5.57126 21.5079 5.87343C21.9601 6.17561 22.3126 6.6051 22.5208 7.10759C22.7289 7.61009 22.7834 8.16302 22.6773 8.69647C22.5711 9.22992 22.3092 9.71992 21.9246 10.1045C21.54 10.4891 21.05 10.751 20.5166 10.8571C19.9831 10.9632 19.4302 10.9088 18.9277 10.7006C18.4252 10.4925 17.9957 10.14 17.6936 9.68779C17.3914 9.23555 17.2301 8.70387 17.2301 8.15997C17.2301 7.43063 17.5198 6.73116 18.0356 6.21543C18.5513 5.69971 19.2508 5.40997 19.9801 5.40997ZM42.1901 5.72997H46.9301V19.2L52.3101 12.98H58.1201L51.9001 20.05L57.9901 28.27H52.0301L46.9901 20.72H46.9301V28.27H42.1901V5.72997ZM24.9801 13H29.5001V15.09H29.5601C30.016 14.3115 30.6741 13.6709 31.4646 13.236C32.2551 12.8012 33.1485 12.5883 34.0501 12.62C38.8601 12.62 39.7401 15.78 39.7401 19.89V28.27H35.0401V20.84C35.0401 19.07 35.0401 16.84 32.5701 16.84C30.1001 16.84 29.7201 18.77 29.7201 20.76V28.31H24.9801V13Z" fill="#ef3b50"/>
<path d="M68.1098 18.85C68.1195 18.4652 68.0507 18.0825 67.9079 17.7251C67.7651 17.3677 67.5511 17.0431 67.2789 16.7709C67.0068 16.4988 66.6821 16.2848 66.3247 16.1419C65.9673 15.9991 65.5846 15.9304 65.1998 15.94C64.3711 15.8876 63.555 16.1635 62.9281 16.7081C62.3012 17.2526 61.9139 18.0221 61.8498 18.85H68.1098ZM72.1098 25.62C71.3187 26.568 70.3272 27.3289 69.2067 27.8476C68.0862 28.3664 66.8646 28.6302 65.6298 28.62C60.8898 28.62 57.0898 25.46 57.0898 20.55C57.0898 15.64 60.8898 12.49 65.6298 12.49C70.0598 12.49 72.8398 15.65 72.8398 20.55V22.04H61.8398C61.9705 22.8877 62.4045 23.6591 63.0611 24.2108C63.7177 24.7626 64.5523 25.0573 65.4098 25.04C66.0853 25.039 66.7495 24.867 67.3405 24.54C67.9316 24.213 68.4302 23.7417 68.7898 23.17L72.1098 25.62ZM82.7298 16.68C81.9558 16.6561 81.1923 16.8638 80.537 17.2764C79.8817 17.6891 79.3645 18.2879 79.0515 18.9963C78.7386 19.7047 78.6443 20.4903 78.7805 21.2526C78.9168 22.015 79.2775 22.7193 79.8164 23.2753C80.3554 23.8314 81.048 24.214 81.8057 24.3741C82.5634 24.5342 83.3516 24.4645 84.0694 24.1739C84.7873 23.8833 85.402 23.3851 85.835 22.7431C86.268 22.1011 86.4995 21.3444 86.4998 20.57C86.5423 20.0561 86.4738 19.5391 86.2991 19.054C86.1244 18.5689 85.8476 18.1269 85.4873 17.7581C85.1269 17.3893 84.6916 17.1021 84.2107 16.9161C83.7298 16.7301 83.2146 16.6496 82.6998 16.68H82.7298ZM90.8998 28.26H86.4998V26.26C85.9502 26.9931 85.2398 27.5906 84.4234 28.0066C83.607 28.4227 82.7061 28.6462 81.7898 28.66C77.2298 28.66 74.2298 25.37 74.2298 20.72C74.2298 16.45 76.8898 12.53 81.2298 12.53C82.1424 12.4498 83.0608 12.5896 83.9081 12.9376C84.7555 13.2855 85.5071 13.8316 86.0998 14.53H86.1598V5.72998H90.8998V28.26Z" fill="#ef3b50"/>
<path d="M125.1 0.999976H97.86C97.5507 0.99599 97.2437 1.05365 96.9568 1.16958C96.67 1.28552 96.4092 1.45741 96.1895 1.67523C95.9698 1.89305 95.7957 2.15244 95.6773 2.43826C95.5589 2.72408 95.4987 3.03061 95.5 3.33998V30.69C95.5026 30.9968 95.5658 31.3001 95.686 31.5825C95.8061 31.8648 95.9808 32.1206 96.2001 32.3353C96.4194 32.5499 96.6789 32.7191 96.9638 32.8332C97.2486 32.9473 97.5532 33.0039 97.86 33H125.1C125.41 33.0079 125.718 32.9543 126.007 32.8422C126.296 32.73 126.56 32.5616 126.783 32.3467C127.006 32.1318 127.185 31.8747 127.308 31.5903C127.431 31.3059 127.496 30.9999 127.5 30.69V3.33998C127.5 3.02757 127.438 2.7183 127.316 2.43042C127.195 2.14253 127.017 1.88186 126.794 1.66377C126.57 1.44568 126.305 1.27458 126.014 1.16058C125.723 1.04657 125.412 0.991965 125.1 0.999976ZM104.98 28.27H100.24V13H104.98V28.27ZM102.61 10.93C102.066 10.93 101.534 10.7687 101.082 10.4665C100.63 10.1643 100.277 9.73485 100.069 9.23236C99.8612 8.72986 99.8068 8.17693 99.9129 7.64348C100.019 7.11003 100.281 6.62003 100.665 6.23543C101.05 5.85084 101.54 5.58893 102.074 5.48282C102.607 5.37671 103.16 5.43117 103.662 5.63931C104.165 5.84745 104.594 6.19992 104.897 6.65216C105.199 7.10439 105.36 7.63608 105.36 8.17998C105.36 8.90932 105.07 9.60879 104.555 10.1245C104.039 10.6402 103.339 10.93 102.61 10.93ZM122.74 28.27H118V20.85C118 19.08 118 16.85 115.54 16.85C113.08 16.85 112.69 18.78 112.69 20.77V28.32H107.95V13H112.5V15.1H112.56C113.017 14.3233 113.676 13.6847 114.466 13.2517C115.257 12.8187 116.149 12.6073 117.05 12.64C121.85 12.64 122.74 15.8 122.74 19.91V28.27Z" fill="#ef3b50"/>
</svg>
